HIERARCHY
ROOT hip
{
	OFFSET 0.000000 0.000000 0.000000 
	CHANNELS 6 Xposition Yposition Zposition Xrotation Zrotation Yrotation
	JOINT abdomen
	{
		OFFSET 0.000000 3.402643 0.000000 
		CHANNELS 3 Xrotation Zrotation Yrotation
		JOINT chest
		{
			OFFSET 0.000000 8.438565 -0.680529 
			CHANNELS 3 Xrotation Zrotation Yrotation
			JOINT neck
			{
				OFFSET 0.000000 10.207942 -0.272212 
				CHANNELS 3 Xrotation Zrotation Yrotation
				JOINT head
				{
					OFFSET 0.000000 3.130431 0.000000 
					CHANNELS 3 Xrotation Zrotation Yrotation
					End Site
					{
						OFFSET 0.000000 3.130435 0.000000 
					}
				}
			}
			JOINT lCollar
			{
				OFFSET 3.470700 6.669187 -0.816635 
				CHANNELS 3 Yrotation Zrotation Xrotation
				JOINT lShldr
				{
					OFFSET 3.198488 0.000000 0.000000 
					CHANNELS 3 Zrotation Yrotation Xrotation
					JOINT lForeArm
					{
						OFFSET 10.139888 0.000000 0.000000 
						CHANNELS 3 Yrotation Zrotation Xrotation
						JOINT lHand
						{
							OFFSET 8.370511 0.000000 0.000000 
							CHANNELS 3 Zrotation Yrotation Xrotation
							End Site
							{
								OFFSET 4.083176 0.000000 0.000000 
							}
						}
					}
				}
			}
			JOINT rCollar
			{
				OFFSET -3.470700 6.669187 -0.816635 
				CHANNELS 3 Yrotation Zrotation Xrotation
				JOINT rShldr
				{
					OFFSET -3.198488 0.000000 0.000000 
					CHANNELS 3 Zrotation Yrotation Xrotation
					JOINT rForeArm
					{
						OFFSET -10.139888 0.000000 0.000000 
						CHANNELS 3 Yrotation Zrotation Xrotation
						JOINT rHand
						{
							OFFSET -8.370511 0.000000 0.000000 
							CHANNELS 3 Zrotation Yrotation Xrotation
							End Site
							{
								OFFSET -4.083176 0.000000 0.000000 
							}
						}
					}
				}
			}
		}
	}
	JOINT lThigh
	{
		OFFSET 5.308129 -1.633274 1.361059 
		CHANNELS 3 Xrotation Zrotation Yrotation
		JOINT lShin
		{
			OFFSET -2.041588 -20.007561 0.000000 
			CHANNELS 3 Xrotation Zrotation Yrotation
			JOINT lFoot
			{
				OFFSET 0.000000 -19.190928 -1.224953 
				CHANNELS 3 Xrotation Yrotation Zrotation
				End Site
				{
					OFFSET 0.000000 -2.449906 4.627600 
				}
			}
		}
	}
	JOINT rThigh
	{
		OFFSET -5.308129 -1.633274 1.361059 
		CHANNELS 3 Xrotation Zrotation Yrotation
		JOINT rShin
		{
			OFFSET 2.041588 -20.007561 0.000000 
			CHANNELS 3 Xrotation Zrotation Yrotation
			JOINT rFoot
			{
				OFFSET 0.000000 -19.190928 -1.224953 
				CHANNELS 3 Xrotation Yrotation Zrotation
				End Site
				{
					OFFSET 0.000000 -2.449906 4.627600 
				}
			}
		}
	}
}
MOTION
Frames: 18
Frame Time: 0.033333
20.305397 49.775890 -18.118120 -7.519531 16.669922 63.723507 10.370376 -8.712459 -6.345483 6.230469 21.142578 6.380476 -1.251093 -17.737745 -46.274315 -2.617188 -20.390625 -44.189457 2.000000 -2.000000 0.000000 14.921875 -31.786024 -77.621620 3.077966 -0.829006 2.430003 12.266765 17.994503 43.760372 -2.000000 2.000000 0.000000 -15.253907 11.044923 -32.968750 -3.069184 1.951781 2.468132 10.803536 1.689602 -45.530685 34.860569 22.763815 37.008801 7.494476 -3.674974 13.185224 22.246050 -2.993547 -13.150654 -15.935629 -26.622755 -18.104527 4.355405 2.790770 -40.654125 17.298311 1.090971 6.710529 
20.869678 51.650070 -12.139570 -0.205078 17.031258 62.053627 10.370376 -8.712459 -6.345483 -1.289062 15.488282 5.100264 -2.832523 -16.814762 -42.070698 -4.072267 -20.351561 -39.765633 2.000000 -2.000000 0.000000 19.345703 -24.892578 -68.275597 3.097514 -0.848502 2.431180 9.709577 17.381575 41.128956 -2.000000 2.000000 0.000000 -22.353518 -16.230471 -28.994143 -3.146894 1.854889 2.452519 9.198794 -5.109169 -36.770226 37.715118 24.014662 41.388203 6.264031 -3.831057 10.672198 24.444979 -3.293721 -13.143478 -18.750038 -42.484379 -19.924963 4.402800 2.440611 -52.229763 17.280846 0.206408 3.490673 
20.546263 52.654797 -6.052294 -1.816406 18.701172 64.104691 10.370376 -8.712459 -6.345483 -1.269531 16.386719 5.009767 -2.699045 -16.912987 -42.523766 -1.035157 -22.705078 -39.853519 2.000000 -2.000000 0.000000 20.537109 -23.496096 -70.921860 3.019104 -0.771106 2.416725 14.192070 15.938967 51.346645 -2.000000 2.000000 0.000000 -28.076172 -42.226563 -27.363281 -3.234880 1.668503 2.460858 0.440840 -5.818631 -23.326651 43.430389 38.398952 53.657188 11.127223 -4.086441 -5.073101 23.773788 -1.477417 -3.731679 -6.370409 -47.709488 -29.733435 3.845937 2.774209 -54.468822 18.239073 -5.235552 6.398896 
19.734827 52.450932 1.026376 -0.439453 19.609375 56.722031 10.370376 -8.712459 -6.345483 -4.882812 9.902344 5.177461 -3.161567 -16.885057 -41.368694 12.968750 -22.167969 -40.947266 2.000000 -2.000000 0.000000 19.472656 -12.177734 -60.664059 3.077966 -0.829006 2.430003 17.228313 16.171188 46.669632 -2.000000 2.000000 0.000000 -26.455076 -54.951172 -26.570494 -1.291370 1.580772 2.455575 -1.178228 -2.302053 -19.106550 50.555790 43.310932 59.889091 10.873343 -4.142877 -7.094570 21.421101 -1.171377 -0.168777 -6.790220 -46.948685 -28.867470 4.312832 2.582641 -54.457245 20.634077 -3.068642 5.865474 
18.295685 52.006706 7.232826 3.027344 21.425783 50.501617 10.370376 -8.712459 -6.345483 -7.490235 3.173828 6.035157 -3.712135 -16.797043 -39.785240 16.542971 -24.111328 -39.877037 2.000000 -2.000000 0.000000 12.275390 -5.009766 -40.917969 3.155972 -0.936821 2.426734 14.173620 15.889876 34.648491 -2.000000 2.000000 0.000000 -18.828123 -63.818356 -35.653294 -2.492462 1.532032 2.452640 0.719888 4.386022 -14.442945 45.457108 45.517723 53.473782 13.327480 -3.880311 0.376103 13.939586 -0.119336 6.478559 -8.821058 -44.945354 -28.472830 8.470364 2.751118 -48.563400 20.077013 0.208575 4.609995 
16.073046 50.591099 13.992987 -0.957031 23.124998 42.138676 10.370376 -8.712459 -6.345483 -5.634765 -0.507813 6.845617 -4.129182 -16.389265 -37.944729 14.208985 -23.203125 -37.953072 2.000000 -2.000000 0.000000 5.595703 -3.212890 -32.363281 3.165966 -0.945981 2.437068 3.810718 15.773170 29.148191 -2.000000 2.000000 0.000000 -2.099610 -66.054688 -46.435547 -3.302674 1.307830 2.439139 6.903486 4.912513 1.028856 44.040268 46.523712 56.056999 11.717852 -3.854823 1.723116 8.574957 0.179777 3.414580 -6.271095 -35.191006 -24.760403 16.313128 2.130444 -42.169018 14.124051 0.529009 6.991147 
13.775658 48.719559 18.720781 -4.365234 22.431641 36.536930 10.370376 -8.712459 -6.345483 -2.060547 -0.117188 7.070292 -4.390695 -15.823800 -36.396564 6.035156 -19.316404 -36.067684 2.000000 -2.000000 0.000000 -3.349609 -12.060547 -30.382898 3.205110 -1.023965 2.441779 -2.426043 16.653671 20.974390 -2.000000 2.000000 0.000000 18.203123 -60.615238 -61.767578 -3.302701 1.327326 2.440313 16.515541 11.440031 0.471859 26.753777 47.947956 39.126617 19.604677 -3.426538 3.987593 0.438324 -0.077688 5.060069 -4.669099 -24.281620 -22.634190 22.410019 1.606069 -38.053543 -0.901123 0.070244 -2.204041 
11.328135 47.177853 22.709883 -6.152344 17.480469 16.194342 10.370376 -8.712459 -6.345483 -3.496094 1.513672 6.748047 -6.769040 -12.046050 -26.458868 -1.347657 -13.564452 -26.074221 2.000000 -2.000000 0.000000 -20.449219 1.162109 -6.757812 3.283156 -1.317577 2.439950 -10.471931 -6.732945 0.671125 -2.000000 2.000000 0.000000 22.705078 -36.601563 -42.974571 -1.760072 1.551528 2.453815 23.989876 21.382801 -13.650089 21.005154 37.207668 30.693691 19.678677 -2.964053 13.506251 -0.871330 -0.296737 -0.460797 -14.990151 -11.318354 -7.161255 35.855415 1.159315 -33.422146 -14.390893 -0.365376 -1.214131 
9.276770 46.549400 25.224726 -6.269531 12.089844 1.210938 10.370376 -8.712459 -6.345483 -3.017576 5.136719 6.309468 -7.962673 -9.128042 -19.796686 -4.755860 -10.527343 -19.238285 2.000000 -2.000000 0.000000 -30.605471 -5.419921 8.457031 -0.886355 -1.296907 2.458263 -24.677668 -23.104679 1.800078 -2.000000 2.000000 0.000000 28.193359 -16.005859 -24.758551 7.311502 1.432202 2.485752 29.982946 28.782572 -15.248390 3.903178 30.735437 16.325748 24.566565 -2.957388 11.032890 -0.064038 -0.521804 -4.428624 -14.826219 -0.458840 -1.031925 35.775967 1.481075 -28.951632 -19.104486 0.514774 -4.718991 
8.037469 46.459801 27.597370 -5.117188 7.724609 -19.208982 10.370376 -8.712459 -6.345483 -2.402344 6.250000 6.220703 -9.197689 -4.175627 -8.707783 -6.513674 -2.587890 -9.267579 2.000000 -2.000000 0.000000 -33.691402 -10.117187 24.470942 -28.079384 -1.001870 2.645844 -24.472231 -22.904650 -8.818910 -2.000000 2.000000 0.000000 30.917965 5.214844 2.978516 27.386387 1.247332 2.631114 21.935606 35.429794 -26.845221 -10.389367 24.888008 7.334525 27.443899 -2.870603 10.271513 -0.972928 -0.551043 -5.808613 -10.765024 5.835554 4.295611 32.746235 2.285000 -17.221224 -21.912796 2.191979 -9.803345 
6.627395 47.012249 30.817694 -7.382812 3.398438 -44.325592 10.370376 -8.712459 -6.345483 1.054687 3.544922 6.894531 -9.274102 1.197506 3.216766 -4.257813 4.384766 1.982422 2.000000 -2.000000 0.000000 -30.166016 -13.242188 36.472374 -50.748524 -0.944623 2.945759 -12.017839 -23.189880 -25.356655 -2.000000 2.000000 0.000000 39.267578 23.925781 30.556641 54.087162 1.068397 3.001980 7.171772 31.981668 -41.366436 -14.128137 22.387356 4.517648 25.626997 -3.158118 6.691694 1.372228 -0.543118 -5.032591 1.355069 4.701997 8.009894 27.007368 3.462403 -0.185530 -21.337820 4.089589 -15.216157 
5.402062 47.949905 34.199348 -6.601562 -1.083984 -68.779480 10.370376 -8.712459 -6.345483 2.636719 2.041016 7.178083 -8.416134 6.247784 14.515134 -0.380859 7.724608 13.936861 2.000000 -2.000000 0.000000 -26.708984 -18.388670 40.700043 -65.899117 -0.831218 3.202981 -6.873285 -17.862404 -26.265158 -2.000000 2.000000 0.000000 55.517582 31.103518 51.469887 71.961395 0.903294 3.305160 0.560398 31.671471 -36.976528 -17.035158 23.029545 0.304136 24.437145 -3.642758 -1.134864 5.097133 -0.904385 -4.261818 9.597530 -0.897407 5.702175 22.966522 4.368435 18.346382 -15.054843 4.058647 -17.937950 
3.788126 49.300957 38.352924 -3.271484 -1.611328 -94.834259 10.370376 -8.712459 -6.345483 0.224611 3.134766 6.865769 -6.980846 10.543546 24.527950 4.619141 6.357422 25.665148 2.000000 -2.000000 0.000000 -30.664063 -21.582031 43.261719 -75.563782 -0.753533 3.354904 -7.494918 -15.279070 -23.096947 -2.000000 2.000000 0.000000 66.464844 26.591797 68.627419 85.657364 0.869018 3.547617 -1.523540 34.465385 -34.464470 -18.081806 24.536419 -1.549015 24.495363 -4.225895 -14.377714 7.391662 -1.305212 -3.234685 9.303007 -8.833656 1.224844 23.662434 4.644182 27.548304 -4.205121 0.223793 -14.332380 
0.823391 50.244274 43.098083 1.806641 -2.382813 -122.607826 10.370376 -8.712459 -6.345483 1.865236 6.289063 6.749116 -5.910760 12.673697 29.507517 7.675781 6.152343 31.298830 2.000000 -2.000000 0.000000 -38.476563 -23.027342 46.708984 -84.446960 -0.723986 3.519392 -6.956930 -17.207418 -21.445683 -2.000000 2.000000 0.000000 67.451172 23.388674 76.113281 85.413452 0.840367 3.536099 13.649632 46.100700 -21.930286 -9.694136 25.548702 0.793760 22.907755 -4.483452 -19.944479 8.569836 -1.485812 -2.074602 11.103107 -17.568211 -7.898015 18.373333 4.686504 25.838669 8.885459 3.372369 1.647572 
-2.456582 49.876434 47.602253 2.197266 4.853516 -153.524567 10.370376 -8.712459 -6.345483 -1.376952 10.957032 5.783106 -5.884798 13.235518 30.351625 13.505859 8.291016 32.061958 2.000000 -2.000000 0.000000 -34.160152 -20.166018 44.098202 -92.442070 -0.764439 3.658789 2.327125 -24.718485 -24.124514 -2.000000 2.000000 0.000000 61.816410 30.390627 68.491264 74.509529 0.735219 3.334104 48.121590 55.209896 11.869100 -2.490786 28.007544 6.066509 21.212221 -4.308740 -15.894538 2.899323 -2.808792 -8.386026 0.145958 -19.668125 -13.293332 14.503260 4.136872 7.906551 12.690872 0.824282 5.502608 
-6.375961 48.587803 51.588207 -178.730469 170.722656 -0.808973 10.370376 -8.712459 -6.345483 2.402345 14.160157 6.076608 -7.417331 10.110472 21.951752 17.412111 2.138672 24.180052 2.000000 -2.000000 0.000000 -24.599609 -18.867188 31.012466 -89.200928 -0.757651 3.609470 4.253790 -25.680721 -25.340807 -2.000000 2.000000 0.000000 49.482418 41.435543 40.937496 66.777916 0.713654 3.205519 54.493969 54.064075 13.358065 -1.728995 25.621185 5.638261 35.061924 -3.441607 -5.511549 -9.997510 -2.360082 -10.009629 -10.760419 -18.772093 -18.076544 10.512089 3.433755 -14.869473 8.830699 0.744750 15.174629 
-10.268916 46.663288 55.295288 -0.830078 12.441407 160.019531 10.370376 -8.712459 -6.345483 9.814455 17.724611 7.405317 -8.905449 -2.003439 -5.614400 15.888671 -1.816406 -5.449219 2.000000 -2.000000 0.000000 -13.183594 -17.402344 9.606456 -83.470810 -0.725169 3.499901 -3.874629 -23.496874 -22.473801 -2.000000 2.000000 0.000000 28.144531 45.966797 -1.435547 54.409363 0.931338 3.003483 38.638668 51.177032 -12.438694 -7.421182 22.575130 5.803272 50.587788 -2.102408 5.005900 -20.113506 -1.548811 -10.990575 -19.781506 -20.266710 -16.146559 8.322570 3.519944 -10.227729 3.133999 0.870810 30.217758 
-13.513400 45.191547 57.375351 1.796875 17.666018 149.036163 10.370376 -8.712459 -6.345483 19.023439 22.197266 9.691190 -5.271724 -12.013332 -29.658133 14.785157 -2.900391 -31.377453 2.000000 -2.000000 0.000000 -7.919922 -22.099611 -12.343751 -66.943970 -0.664915 3.202689 -17.183466 -19.886614 -14.067719 -2.000000 2.000000 0.000000 8.681640 34.394527 -19.560547 47.029095 1.153453 2.889744 12.392989 40.394085 -39.580853 -5.702851 22.492317 10.434497 59.248127 -1.330202 9.472584 -26.308895 -0.982405 -10.323777 -16.737513 -23.767105 -17.932093 8.297290 3.256929 -16.986841 8.303506 1.825329 24.375475 
